<?xml version="1.0" encoding="UTF-8"?>
<svg width="677px" height="226px" viewBox="0 0 677 226" version="1.1" xmlns="http://www.w3.org/2000/svg" xmlns:xlink="http://www.w3.org/1999/xlink">
    <!-- Generator: Sketch 47.1 (45422) - http://www.bohemiancoding.com/sketch -->
    <title>28%</title>
    <desc>Created with Sketch.</desc>
    <defs></defs>
    <g id="Page-1" stroke="none" stroke-width="1" fill="none" fill-rule="evenodd">
        <path d="M0.536,221 L177.944,221 L177.944,169.16 L79.448,169.16 L79.448,168.584 L138.776,127.976 C161.24,113 178.232,93.416 178.232,66.056 C178.232,39.848 159.224,0.968 92.12,0.968 C41.72,0.968 11.192,28.328 -0.04,56.84 L44.888,79.88 C51.224,60.872 66.2,42.44 87.8,42.44 C104.216,42.44 115.448,52.808 115.448,69.512 C115.448,84.488 97.304,102.632 87.8,110.408 L0.536,181.256 L0.536,221 Z M350.168,100.328 L350.168,100.904 C374.36,109.544 393.944,130.568 393.944,157.352 C393.944,209.192 335.768,225.032 293.432,225.032 C255.128,225.032 203.864,211.208 203.864,165.128 C203.864,142.088 223.16,126.824 242.744,119.336 C222.584,108.392 209.624,90.536 209.624,67.208 C209.624,17.672 256.28,0.968 300.92,0.968 C335.768,0.968 383.576,17.96 383.576,60.008 C383.576,81.032 368.888,94.28 350.168,100.616 L350.168,100.328 Z M330.008,165.416 C330.008,144.104 296.888,140.648 282.488,134.6 C272.408,141.512 262.616,147.848 262.616,161.672 C262.616,176.648 283.928,185.288 296.312,185.288 C308.696,185.288 330.008,180.68 330.008,165.416 Z M329.432,63.752 C329.432,47.624 313.016,40.712 298.04,40.712 C286.808,40.712 268.376,46.184 268.376,59.432 C268.376,76.712 299.192,81.896 311.576,86.216 C319.928,80.744 329.432,74.696 329.432,63.752 Z M598.136,165.992 C598.136,176.648 606.776,185.288 617.432,185.288 C628.088,185.288 636.728,176.648 636.728,165.992 C636.728,155.336 628.088,146.696 617.432,146.696 C606.776,146.696 598.136,155.336 598.136,165.992 Z M558.392,165.992 C558.392,133.448 584.888,106.952 617.432,106.952 C649.976,106.952 676.472,133.448 676.472,165.992 C676.472,198.536 649.976,225.032 617.432,225.032 C584.888,225.032 558.392,198.536 558.392,165.992 Z M470.84,225.032 L597.56,0.968 L624.632,0.968 L497.624,225.032 L470.84,225.032 Z M417.272,60.008 C417.272,27.464 443.768,0.968 476.312,0.968 C508.856,0.968 535.352,27.464 535.352,60.008 C535.352,92.552 508.856,119.048 476.312,119.048 C443.768,119.048 417.272,92.552 417.272,60.008 Z M457.016,60.008 C457.016,70.664 465.656,79.304 476.312,79.304 C486.968,79.304 495.608,70.664 495.608,60.008 C495.608,49.352 486.968,40.712 476.312,40.712 C465.656,40.712 457.016,49.352 457.016,60.008 Z" id="28%" fill="#000000"></path>
    </g>
</svg>