<?xml version="1.0" encoding="UTF-8"?>
<svg width="1179px" height="1062px" viewBox="0 0 1179 1062" version="1.1" xmlns="http://www.w3.org/2000/svg" xmlns:xlink="http://www.w3.org/1999/xlink">
    <!-- Generator: Sketch 47.1 (45422) - http://www.bohemiancoding.com/sketch -->
    <title>Group</title>
    <desc>Created with Sketch.</desc>
    <defs>
        <polygon id="path-1" points="0.813165906 0.703612676 21.463851 0.703612676 21.463851 21.3242669 0.813165906 21.3242669 0.813165906 0.703612676"></polygon>
        <polygon id="path-3" points="0 0.0671614042 0 92 141.71272 92 141.71272 0.0671614042 2.49120888e-20 0.0671614042"></polygon>
    </defs>
    <g id="Page-1" stroke="none" stroke-width="1" fill="none" fill-rule="evenodd">
        <g id="Desktop-HD" transform="translate(-140.000000, -127.000000)">
            <g id="Group" transform="translate(140.000000, 127.000000)">
                <g id="Page-1" transform="translate(59.000000, 44.000000)">
                    <polyline id="Stroke-1" stroke="#231F20" stroke-width="7" points="1100 658 54.5682661 658 25 658 25 21"></polyline>
                    <polygon id="Fill-2" fill="#231F20" points="1086 671 1120 658.501237 1086 646"></polygon>
                    <polygon id="Fill-3" fill="#231F20" points="13 35 38 35 25.4987632 1"></polygon>
                    <g id="Group-73">
                        <path d="M95.5767471,657.728004 L95.5767471,681.999039" id="Stroke-4" stroke="#231F20" stroke-width="7"></path>
                        <path d="M596.358745,657.728004 L596.358745,681.999039" id="Stroke-6" stroke="#231F20" stroke-width="7"></path>
                        <path d="M345.967746,657.728004 L345.967746,681.999039" id="Stroke-8" stroke="#231F20" stroke-width="7"></path>
                        <path d="M846.749744,657.728004 L846.749744,681.999039" id="Stroke-10" stroke="#231F20" stroke-width="7"></path>
                        <path d="M220.772126,657.728004 L220.772126,681.999039" id="Stroke-12" stroke="#231F20" stroke-width="7"></path>
                        <path d="M721.554365,657.728004 L721.554365,681.999039" id="Stroke-14" stroke="#231F20" stroke-width="7"></path>
                        <path d="M471.163366,657.728004 L471.163366,681.999039" id="Stroke-16" stroke="#231F20" stroke-width="7"></path>
                        <path d="M971.945364,657.728004 L971.945364,681.999039" id="Stroke-18" stroke="#231F20" stroke-width="7"></path>
                        <path d="M158.174437,657.728004 L158.174437,681.999039" id="Stroke-20" stroke="#231F20" stroke-width="7"></path>
                        <path d="M658.956675,657.728004 L658.956675,681.999039" id="Stroke-22" stroke="#231F20" stroke-width="7"></path>
                        <path d="M408.565436,657.728004 L408.565436,681.999039" id="Stroke-24" stroke="#231F20" stroke-width="7"></path>
                        <path d="M909.347674,657.728004 L909.347674,681.999039" id="Stroke-26" stroke="#231F20" stroke-width="7"></path>
                        <path d="M283.370057,657.728004 L283.370057,681.999039" id="Stroke-28" stroke="#231F20" stroke-width="7"></path>
                        <path d="M784.152055,657.728004 L784.152055,681.999039" id="Stroke-30" stroke="#231F20" stroke-width="7"></path>
                        <path d="M533.761056,657.728004 L533.761056,681.999039" id="Stroke-32" stroke="#231F20" stroke-width="7"></path>
                        <path d="M1034.54305,657.728004 L1034.54305,681.999039" id="Stroke-34" stroke="#231F20" stroke-width="7"></path>
                        <path d="M0,158.810664 L24.303269,158.810664" id="Stroke-36" stroke="#231F20" stroke-width="7"></path>
                        <path d="M0,408.869566 L24.303269,408.869566" id="Stroke-38" stroke="#231F20" stroke-width="7"></path>
                        <path d="M0,533.899137 L24.303269,533.899137" id="Stroke-40" stroke="#231F20" stroke-width="7"></path>
                        <path d="M0,283.840235 L24.303269,283.840235" id="Stroke-42" stroke="#231F20" stroke-width="7"></path>
                        <path d="M0,596.413803 L24.303269,596.413803" id="Stroke-44" stroke="#231F20" stroke-width="7"></path>
                        <path d="M0,96.2959986 L24.303269,96.2959986" id="Stroke-46" stroke="#231F20" stroke-width="7"></path>
                        <path d="M0,346.354901 L24.303269,346.354901" id="Stroke-48" stroke="#231F20" stroke-width="7"></path>
                        <path d="M0,471.384472 L24.303269,471.384472" id="Stroke-50" stroke="#231F20" stroke-width="7"></path>
                        <path d="M0,221.32533 L24.303269,221.32533" id="Stroke-52" stroke="#231F20" stroke-width="7"></path>
                        <path d="M91.9698506,592.812651 C91.9698506,592.812651 521.07031,518.709989 870.795,169.449144" id="Stroke-54" stroke="#231F20" stroke-width="7"></path>
                        <polygon id="Fill-56" fill="#231F20" points="885.054024 155.208551 852.846842 170.21015 870.032502 187.373016"></polygon>
                        <path d="M164.892161,495.608199 C170.593463,495.608199 175.217504,490.992692 175.217504,485.298953 C175.217504,479.602812 170.593463,474.987305 164.892161,474.987305 C159.19086,474.987305 154.566819,479.602812 154.566819,485.298953 C154.566819,490.992692 159.19086,495.608199 164.892161,495.608199" id="Fill-58" fill="#231F20"></path>
                        <path d="M297.301574,576.396623 C303.002875,576.396623 307.626917,571.781115 307.626917,566.087376 C307.626917,560.391235 303.002875,555.775728 297.301574,555.775728 C291.600273,555.775728 286.976232,560.391235 286.976232,566.087376 C286.976232,571.781115 291.600273,576.396623 297.301574,576.396623" id="Fill-60" fill="#231F20"></path>
                        <path d="M352.685471,433.093054 C358.386772,433.093054 363.010813,428.477546 363.010813,422.783807 C363.010813,417.087666 358.386772,412.472159 352.685471,412.472159 C346.98417,412.472159 342.360128,417.087666 342.360128,422.783807 C342.360128,428.477546 346.98417,433.093054 352.685471,433.093054" id="Fill-62" fill="#231F20"></path>
                        <path d="M471.163366,419.180734 C476.864667,419.180734 481.488709,414.565227 481.488709,408.871487 C481.488709,403.175346 476.864667,398.559839 471.163366,398.559839 C465.462065,398.559839 460.838023,403.175346 460.838023,408.871487 C460.838023,414.565227 465.462065,419.180734 471.163366,419.180734" id="Fill-64" fill="#231F20"></path>
                        <path d="M603.07671,453.716109 C608.778011,453.716109 613.402053,449.100602 613.402053,443.406863 C613.402053,437.710722 608.778011,433.095215 603.07671,433.095215 C597.375409,433.095215 592.751368,437.710722 592.751368,443.406863 C592.751368,449.100602 597.375409,453.716109 603.07671,453.716109" id="Fill-66" fill="#231F20"></path>
                        <path d="M623.725953,300.859737 C629.427254,300.859737 634.051295,296.24423 634.051295,290.550491 C634.051295,284.85435 629.427254,280.238843 623.725953,280.238843 C618.024651,280.238843 613.40061,284.85435 613.40061,290.550491 C613.40061,296.24423 618.024651,300.859737 623.725953,300.859737" id="Fill-68" fill="#231F20"></path>
                        <g id="Group-72" transform="translate(1023.404786, 0.000000)">
                            <mask id="mask-2" fill="white">
                                <use xlink:href="#path-1"></use>
                            </mask>
                            <g id="Clip-71"></g>
                            <path d="M11.1385084,21.3242669 C16.8398096,21.3242669 21.463851,16.7087599 21.463851,11.0150204 C21.463851,5.31887958 16.8398096,0.703372535 11.1385084,0.703372535 C5.43720729,0.703372535 0.813165906,5.31887958 0.813165906,11.0150204 C0.813165906,16.7087599 5.43720729,21.3242669 11.1385084,21.3242669" id="Fill-70" fill="#231F20" mask="url(#mask-2)"></path>
                        </g>
                    </g>
                </g>
                <path d="M567.44,802 L581.36,802 L581.36,798.112 L572.624,798.112 L572.624,794.632 L578.048,794.632 L578.048,790.888 L572.624,790.888 L572.624,787.6 L581.096,787.6 L581.096,783.856 L567.44,783.856 L567.44,802 Z M583.712,802 L587.696,802 L587.696,791.728 L587.744,791.728 L595.136,802 L599.024,802 L599.024,783.856 L595.04,783.856 L595.04,793.48 L594.992,793.48 L588.536,783.856 L583.712,783.856 L583.712,802 Z M602.144,802 L616.064,802 L616.064,798.112 L607.328,798.112 L607.328,794.632 L612.752,794.632 L612.752,790.888 L607.328,790.888 L607.328,787.6 L615.8,787.6 L615.8,783.856 L602.144,783.856 L602.144,802 Z M618.32,802 L618.32,783.856 L627.008,783.856 C633.056,783.856 634.232,786.736 634.232,789.088 C634.232,791.344 632.816,792.856 630.8,793.648 L634.184,802 L628.424,802 L625.856,794.56 L623.504,794.56 L623.504,802 L618.32,802 Z M623.504,787.312 L623.504,791.104 L626.192,791.104 C627.68,791.104 628.76,790.456 628.76,789.28 C628.76,788.128 628.016,787.312 626.408,787.312 L623.504,787.312 Z M644.84,796.096 L647.888,796.096 C647.816,797.704 646.376,798.736 644.744,798.736 C643.136,798.736 641.552,797.8 641.552,792.928 C641.552,788.056 643.136,787.12 644.744,787.12 C646.64,787.12 647.648,788.68 647.864,790.456 L652.832,789.784 C651.872,785.776 648.848,783.52 644.744,783.52 C639.344,783.52 636.08,787.144 636.08,792.928 C636.08,798.712 639.344,802.336 644.408,802.336 C646.256,802.336 648.608,801.736 649.712,800.08 L651.248,801.976 L652.736,801.976 L652.736,792.928 L644.84,792.928 L644.84,796.096 Z M660.992,802 L666.176,802 L666.176,793.864 L672.416,783.856 L667.712,783.856 L664.088,790.024 L660.296,783.856 L654.416,783.856 L660.992,794.296 L660.992,802 Z" id="ENERGY" fill="#000000"></path>
                <path d="M-75.592,376.376 C-77.2,374.288 -79.792,373.52 -82.336,373.52 C-86.68,373.52 -89.632,375.944 -89.632,379.496 C-89.632,386.36 -79.816,384.248 -79.816,387.008 C-79.816,387.8 -80.632,388.592 -82.672,388.592 C-84.52,388.592 -86.104,387.776 -87.232,386.384 L-90.352,388.808 C-88.432,391.568 -85.576,392.336 -82.336,392.336 C-77.032,392.336 -74.632,389.288 -74.632,386.288 C-74.632,378.896 -84.592,381.488 -84.592,378.56 C-84.592,377.72 -83.704,377.264 -82.408,377.264 C-80.824,377.264 -79.624,377.72 -78.616,378.872 L-75.592,376.376 Z M-68.272,392 L-63.088,392 L-63.088,377.456 L-58.096,377.456 L-58.096,373.856 L-73.264,373.856 L-73.264,377.456 L-68.272,377.456 L-68.272,392 Z M-56.104,392 L-56.104,373.856 L-47.416,373.856 C-41.368,373.856 -40.192,376.736 -40.192,379.088 C-40.192,381.344 -41.608,382.856 -43.624,383.648 L-40.24,392 L-46,392 L-48.568,384.56 L-50.92,384.56 L-50.92,392 L-56.104,392 Z M-50.92,377.312 L-50.92,381.104 L-48.232,381.104 C-46.744,381.104 -45.664,380.456 -45.664,379.28 C-45.664,378.128 -46.408,377.312 -48.016,377.312 L-50.92,377.312 Z M-37.576,392 L-23.656,392 L-23.656,388.112 L-32.392,388.112 L-32.392,384.632 L-26.968,384.632 L-26.968,380.888 L-32.392,380.888 L-32.392,377.6 L-23.92,377.6 L-23.92,373.856 L-37.576,373.856 L-37.576,392 Z M-7.576,376.376 C-9.184,374.288 -11.776,373.52 -14.32,373.52 C-18.664,373.52 -21.616,375.944 -21.616,379.496 C-21.616,386.36 -11.8,384.248 -11.8,387.008 C-11.8,387.8 -12.616,388.592 -14.656,388.592 C-16.504,388.592 -18.088,387.776 -19.216,386.384 L-22.336,388.808 C-20.416,391.568 -17.56,392.336 -14.32,392.336 C-9.016,392.336 -6.616,389.288 -6.616,386.288 C-6.616,378.896 -16.576,381.488 -16.576,378.56 C-16.576,377.72 -15.688,377.264 -14.392,377.264 C-12.808,377.264 -11.608,377.72 -10.6,378.872 L-7.576,376.376 Z M9.752,376.376 C8.144,374.288 5.552,373.52 3.008,373.52 C-1.336,373.52 -4.288,375.944 -4.288,379.496 C-4.288,386.36 5.528,384.248 5.528,387.008 C5.528,387.8 4.712,388.592 2.672,388.592 C0.824,388.592 -0.76,387.776 -1.888,386.384 L-5.008,388.808 C-3.088,391.568 -0.232,392.336 3.008,392.336 C8.312,392.336 10.712,389.288 10.712,386.288 C10.712,378.896 0.752,381.488 0.752,378.56 C0.752,377.72 1.64,377.264 2.936,377.264 C4.52,377.264 5.72,377.72 6.728,378.872 L9.752,376.376 Z M21.92,392 L21.92,373.856 L30.608,373.856 C36.656,373.856 37.832,376.736 37.832,379.088 C37.832,381.344 36.416,382.856 34.4,383.648 L37.784,392 L32.024,392 L29.456,384.56 L27.104,384.56 L27.104,392 L21.92,392 Z M27.104,377.312 L27.104,381.104 L29.792,381.104 C31.28,381.104 32.36,380.456 32.36,379.28 C32.36,378.128 31.616,377.312 30.008,377.312 L27.104,377.312 Z M40.448,392 L54.368,392 L54.368,388.112 L45.632,388.112 L45.632,384.632 L51.056,384.632 L51.056,380.888 L45.632,380.888 L45.632,377.6 L54.104,377.6 L54.104,373.856 L40.448,373.856 L40.448,392 Z M56.48,392 L69.248,392 L69.248,388.112 L61.664,388.112 L61.664,373.856 L56.48,373.856 L56.48,392 Z M71.792,392 L76.976,392 L76.976,373.856 L71.792,373.856 L71.792,392 Z M80.48,392 L94.4,392 L94.4,388.112 L85.664,388.112 L85.664,384.632 L91.088,384.632 L91.088,380.888 L85.664,380.888 L85.664,377.6 L94.136,377.6 L94.136,373.856 L80.48,373.856 L80.48,392 Z M96.512,392 L101.696,392 L101.696,384.8 L107.456,384.8 L107.456,381.056 L101.696,381.056 L101.696,377.6 L110.432,377.6 L110.432,373.856 L96.512,373.856 L96.512,392 Z" id="STRESS-RELIEF" fill="#000000" transform="translate(10.040000, 382.928000) rotate(-90.000000) translate(-10.040000, -382.928000) "></path>
                <g id="Page-1" transform="translate(903.000000, 0.000000)">
                    <polygon id="Fill-1" fill="#231F20" points="113.193 0 113 0.0145 113.193 0.284"></polygon>
                    <path d="M113,13 L113.0035,1 L113,13 Z" id="Fill-2" fill="#231F20"></path>
                    <g id="Group-14">
                        <path d="M40.3382479,46.2494171 C39.1880019,39.9245327 38.5487722,33.1206935 37.5023838,26.7135176 L33.0204227,26.853598 C32.2929599,33.278804 31.6045586,39.7386834 30.7029275,46.3062814 L28.1823126,26.7005729 L22.8869534,26.8485126 L27.8670634,65.3100603 L32.8903709,65.1570352 L35.5759631,48.3705025 L38.5579631,65.3267035 C40.1424809,65.2689146 41.8685392,65.3234673 43.3639049,65.1718291 L47.8477042,26.7005729 L42.6575812,26.8392663 L40.3382479,46.2494171 Z" id="Fill-3" fill="#231F20"></path>
                        <polygon id="Fill-5" fill="#231F20" points="121.416434 26.7133789 115.252531 26.7808764 109.856071 41.0103638 109.8671 26.8298814 109.736589 26.7008965 104.155851 26.8391276 104.31899 65.3103839 109.856071 65.1573588 109.849178 53.4419216 112.369793 48.3338412 116.451029 65.3103839 121.829107 65.181399 115.958854 39.4306452"></polygon>
                        <g id="Group-9">
                            <mask id="mask-4" fill="white">
                                <use xlink:href="#path-3"></use>
                            </mask>
                            <g id="Clip-8"></g>
                            <path d="M130.973999,63.6217447 C125.878542,70.5106492 118.602536,75.0195739 110.536568,76.0033729 L108.734225,76.269202 L107.107889,76.4573628 L105.405267,76.5502874 L103.511015,76.5918955 L30.729811,75.7181266 C20.9750084,74.6936442 11.5207495,67.0590312 7.79198576,57.9320764 C3.5186589,48.5217246 5.07238706,35.9916945 11.23629,27.9502472 C12.5115327,26.0395136 16.4296298,22.506991 16.5532479,22.5125387 C22.6335133,17.3425085 28.3686589,15.4044985 34.6975392,15.5829508 L110.819649,16.6629106 C120.268394,17.785403 129.576517,24.5272925 133.574115,33.5284985 C138.137416,42.6096844 136.852063,55.5442372 130.973999,63.6217447 M141.357002,43.7825688 C139.904834,30.9016442 130.416568,17.2315538 117.407714,13.8030513 C115.933487,13.2616844 114.144471,13.4442975 112.902316,12.5825487 L112.905992,0.316960804 L112.728148,0.0677748744 L40.836167,0.0677748744 C33.7306524,0.0220060302 25.8117398,2.54160402 19.9897398,6.15734271 C5.29342913,15.8071719 -2.04737346,31.861403 0.49621877,49.2628101 C2.07568155,61.9930211 11.7073256,74.8540663 24.3646265,78.4573226 C25.7630278,78.9931417 27.0777916,79.2076543 28.7454874,79.7129608 L29.0152414,92.0002774 L83.4113515,91.9780864 L104.163112,91.9780864 C110.428575,91.4330211 116.342484,89.4242774 121.467351,86.1774633 C136.149416,76.7698854 143.461727,61.0804181 141.357002,43.7825688" id="Fill-7" fill="#231F20" mask="url(#mask-4)"></path>
                        </g>
                        <path d="M65.5464647,56.4550372 C65.7201735,58.4004442 64.9219405,59.5539116 63.9458628,59.8211276 C63.1490084,60.0712382 62.395811,60.0453487 61.6458304,59.4568261 C60.6205812,58.8488864 60.5718693,57.606193 60.5226977,56.4453286 L60.5047754,33.8711176 C60.5718693,32.9931879 61.2768142,32.1476201 62.068154,31.8124442 C63.2174809,31.442595 64.6406977,31.9035196 65.2638434,33.0551377 L65.5464647,34.3667156 L65.5464647,56.4550372 Z M60.1012932,26.5129668 C56.8219663,27.6969467 54.7664129,31.187399 54.6813968,34.6177508 L54.6561217,58.9815698 C55.0508725,61.6375497 57.2309631,63.8219719 59.0457139,64.6527457 C61.1568725,65.9513789 64.2206718,66.0318211 66.4660181,64.9333688 C68.8676104,63.9074995 70.7108531,61.3421327 71.1483417,58.8650673 L71.1745359,37.082796 C71.2214097,34.6528864 71.1635068,32.2678211 70.0555392,30.2858915 C68.0381282,26.7991377 63.9306977,25.066394 60.1012932,26.5129668 L60.1012932,26.5129668 Z" id="Fill-10" fill="#231F20"></path>
                        <path d="M88.3873715,43.2927035 C87.6093586,43.6130854 86.4136175,43.4290854 85.50831,43.487799 L85.5193392,31.9378693 C86.790446,31.9998191 88.2173392,31.6299698 89.1332162,32.5684623 C90.3868602,33.9073166 90.3611256,35.8185126 90.3500964,37.6927236 C90.2526725,39.800402 90.4806078,42.2307739 88.3873715,43.2927035 L88.3873715,43.2927035 Z M93.7691256,46.1003216 C96.9813586,42.1124221 96.7460706,35.5411256 94.8375722,31.0728844 C92.5053715,25.8570854 86.497255,26.8538291 79.6270285,26.9499899 L79.7791385,65.3232362 L85.5262324,65.1170452 L85.6677728,48.985608 C86.5473456,49.1552764 86.790446,49.1552764 87.5073392,49.0387739 L91.5233197,65.3264724 L96.7244718,65.171598 C95.315501,59.0052864 93.9396175,53.1015678 92.6427761,47.1516181 L93.7691256,46.1003216 Z" id="Fill-12" fill="#231F20"></path>
                    </g>
                </g>
                <path d="M241.896,139.32 C236.328,139.32 233.384,143.096 233.384,154.808 C233.384,167.8 237.16,170.296 241.896,170.296 C246.568,170.296 250.408,167.8 250.408,154.808 C250.408,142.52 247.272,139.32 241.896,139.32 Z M265,154.808 C265,170.232 256.296,179.896 241.896,179.896 C227.496,179.896 218.792,170.232 218.792,154.808 C218.792,139.384 227.496,129.72 241.896,129.72 C256.296,129.72 265,139.384 265,154.808 Z M302.76,144.952 L290.728,144.952 L290.728,168.376 C289,169.976 287.336,171.448 285.544,171.448 C282.472,171.448 281.896,168.952 281.896,166.52 L281.896,144.952 L269.864,144.952 L269.864,169.592 C269.864,178.04 276.392,179.896 279.656,179.896 C284.072,179.896 287.784,177.08 290.728,174.136 L290.728,179 L302.76,179 L302.76,144.952 Z M306.92,152.76 L311.912,152.76 L311.912,170.68 C311.912,176.76 314.472,179.896 323.624,179.896 C325.416,179.896 327.72,179.64 329.96,179.256 L329.96,171.256 C329.128,171.448 327.848,171.704 327.272,171.704 C325.352,171.704 323.944,170.872 323.944,168.824 L323.944,152.76 L329.64,152.76 L329.64,144.952 L323.944,144.952 L323.944,132.984 L313.384,132.984 L312.552,144.952 L306.92,144.952 L306.92,152.76 Z M333.8,189.24 L333.8,144.952 L345.448,144.952 L345.448,148.408 C348.392,146.104 351.784,144.056 355.688,144.056 C364.52,144.056 368.488,153.272 368.488,161.336 C368.488,170.168 364.648,179.512 354.856,179.512 C351.4,179.512 348.072,177.72 345.832,175.16 L345.832,189.24 L333.8,189.24 Z M345.832,154.04 L345.832,169.592 C347.24,171.128 348.52,172.472 350.824,172.472 C354.728,172.472 355.944,167.608 355.944,161.464 C355.944,157.752 355.688,151.48 350.568,151.48 C348.648,151.48 346.792,152.824 345.832,154.04 Z M372.712,179 L384.744,179 L384.744,157.24 C386.536,155.768 388.136,154.936 390.376,154.936 C392.104,154.936 394.344,155.448 396.904,156.664 L396.904,144.056 C392.296,144.312 387.304,146.424 384.872,150.264 L384.744,150.264 L384.744,144.952 L372.712,144.952 L372.712,179 Z M435.752,164.216 L412.136,164.216 C412.136,169.08 415.528,172.088 420.072,172.088 C423.08,172.088 426.344,170.168 427.816,167.096 L435.752,170.68 C431.592,176.76 425.896,179.896 417.768,179.896 C407.08,179.896 399.592,173.304 399.592,161.976 C399.592,151.544 406.632,144.056 417.768,144.056 C427.88,144.056 435.752,149.944 435.752,163.256 L435.752,164.216 Z M412.584,157.688 L423.208,157.688 C423.336,154.104 421.672,151.096 418.216,151.096 C414.12,151.096 412.648,153.976 412.584,157.688 Z M443.368,179 L455.4,179 L455.4,152.76 L461.096,152.76 L461.096,144.952 L455.4,144.952 L455.4,141.368 C455.4,138.488 457.256,137.912 458.728,137.912 C459.304,137.912 460.072,138.04 461.096,138.168 L461.096,130.232 C457.96,129.912 456.04,129.72 455.144,129.72 C448.552,129.72 443.368,130.424 443.368,141.048 L443.368,144.952 L438.376,144.952 L438.376,152.76 L443.368,152.76 L443.368,179 Z M481.704,172.088 C485.224,172.088 487.336,169.912 487.336,161.976 C487.336,154.04 485.224,151.864 481.704,151.864 C478.184,151.864 476.072,154.04 476.072,161.976 C476.072,169.912 478.184,172.088 481.704,172.088 Z M499.88,161.976 C499.88,172.792 492.584,179.896 481.704,179.896 C471.016,179.896 463.528,173.304 463.528,161.976 C463.528,151.544 470.568,144.056 481.704,144.056 C492.072,144.056 499.88,151.032 499.88,161.976 Z M504.104,179 L516.136,179 L516.136,157.24 C517.928,155.768 519.528,154.936 521.768,154.936 C523.496,154.936 525.736,155.448 528.296,156.664 L528.296,144.056 C523.688,144.312 518.696,146.424 516.264,150.264 L516.136,150.264 L516.136,144.952 L504.104,144.952 L504.104,179 Z M532.968,179 L545,179 L545,155.32 C545.768,154.168 547.944,152.504 550.184,152.504 C553.256,152.504 553.832,154.936 553.832,157.368 L553.832,179 L565.864,179 L565.864,155.32 C566.632,154.168 568.808,152.504 571.048,152.504 C574.12,152.504 574.696,154.936 574.696,157.368 L574.696,179 L586.728,179 L586.728,153.656 C586.728,148.984 583.976,144.056 577.256,144.056 C572.008,144.056 569,146.488 565.416,150.2 C563.88,146.04 560.616,144.056 556.264,144.056 C551.528,144.056 548.072,147.064 545,149.752 L545,144.952 L532.968,144.952 L532.968,179 Z M591.016,172.728 C594.792,178.168 600.296,179.896 606.696,179.896 C619.368,179.896 624.168,175.032 624.168,167.928 C624.168,161.272 618.856,157.88 608.04,156.472 C603.88,155.96 602.664,155.512 602.664,154.104 C602.664,152.056 604.712,151.48 607.272,151.48 C609.832,151.48 613.672,152.76 614.568,154.936 L621.672,150.776 C618.728,145.4 612.264,144.056 606.632,144.056 C597.48,144.056 592.04,149.496 592.04,156.024 C592.04,158.136 592.808,160.76 594.728,162.808 C596.84,165.112 600.04,166.072 606.248,167.032 C612.776,168.056 613.16,169.016 613.16,170.168 C613.16,171.64 611.112,172.856 607.848,172.856 C603.56,172.856 600.616,171.704 598.12,168.184 L591.016,172.728 Z M236.52,247.088 C240.04,247.088 242.152,244.912 242.152,236.976 C242.152,229.04 240.04,226.864 236.52,226.864 C233,226.864 230.888,229.04 230.888,236.976 C230.888,244.912 233,247.088 236.52,247.088 Z M254.696,236.976 C254.696,247.792 247.4,254.896 236.52,254.896 C225.832,254.896 218.344,248.304 218.344,236.976 C218.344,226.544 225.384,219.056 236.52,219.056 C246.888,219.056 254.696,226.032 254.696,236.976 Z M257.128,227.76 L262.12,227.76 L262.12,245.68 C262.12,251.76 264.68,254.896 273.832,254.896 C275.624,254.896 277.928,254.64 280.168,254.256 L280.168,246.256 C279.336,246.448 278.056,246.704 277.48,246.704 C275.56,246.704 274.152,245.872 274.152,243.824 L274.152,227.76 L279.848,227.76 L279.848,219.952 L274.152,219.952 L274.152,207.984 L263.592,207.984 L262.76,219.952 L257.128,219.952 L257.128,227.76 Z M284.008,254 L296.04,254 L296.04,230.576 C297.768,228.976 299.432,227.504 301.224,227.504 C304.296,227.504 304.872,230 304.872,232.432 L304.872,254 L316.904,254 L316.904,229.36 C316.904,220.912 310.376,219.056 307.112,219.056 C302.696,219.056 298.984,221.872 296.04,224.816 L296.04,205.616 L284.008,205.616 L284.008,254 Z M357.48,239.216 L333.864,239.216 C333.864,244.08 337.256,247.088 341.8,247.088 C344.808,247.088 348.072,245.168 349.544,242.096 L357.48,245.68 C353.32,251.76 347.624,254.896 339.496,254.896 C328.808,254.896 321.32,248.304 321.32,236.976 C321.32,226.544 328.36,219.056 339.496,219.056 C349.608,219.056 357.48,224.944 357.48,238.256 L357.48,239.216 Z M334.312,232.688 L344.936,232.688 C345.064,229.104 343.4,226.096 339.944,226.096 C335.848,226.096 334.376,228.976 334.312,232.688 Z M361.896,254 L373.928,254 L373.928,232.24 C375.72,230.768 377.32,229.936 379.56,229.936 C381.288,229.936 383.528,230.448 386.088,231.664 L386.088,219.056 C381.48,219.312 376.488,221.424 374.056,225.264 L373.928,225.264 L373.928,219.952 L361.896,219.952 L361.896,254 Z M444.776,231.216 C442.728,223.28 437.48,219.056 429.16,219.056 C418.92,219.056 411.88,226.544 411.88,236.976 C411.88,248.304 419.176,254.896 429.288,254.896 C437.736,254.896 442.728,250.352 445.672,242.864 L437.032,241.328 C436.008,244.4 434.536,247.088 430.632,247.088 C426.344,247.088 424.424,244.464 424.424,236.976 C424.424,229.04 426.856,226.864 429.416,226.864 C432.808,226.864 433.704,229.232 433.896,231.92 L444.776,231.216 Z M465.64,247.088 C469.16,247.088 471.272,244.912 471.272,236.976 C471.272,229.04 469.16,226.864 465.64,226.864 C462.12,226.864 460.008,229.04 460.008,236.976 C460.008,244.912 462.12,247.088 465.64,247.088 Z M483.816,236.976 C483.816,247.792 476.52,254.896 465.64,254.896 C454.952,254.896 447.464,248.304 447.464,236.976 C447.464,226.544 454.504,219.056 465.64,219.056 C476.008,219.056 483.816,226.032 483.816,236.976 Z M491.24,254 L503.272,254 L503.272,227.76 L508.968,227.76 L508.968,219.952 L503.272,219.952 L503.272,216.368 C503.272,213.488 505.128,212.912 506.6,212.912 C507.176,212.912 507.944,213.04 508.968,213.168 L508.968,205.232 C505.832,204.912 503.912,204.72 503.016,204.72 C496.424,204.72 491.24,205.424 491.24,216.048 L491.24,219.952 L486.248,219.952 L486.248,227.76 L491.24,227.76 L491.24,254 Z M516.136,254 L528.168,254 L528.168,227.76 L533.864,227.76 L533.864,219.952 L528.168,219.952 L528.168,216.368 C528.168,213.488 530.024,212.912 531.496,212.912 C532.072,212.912 532.84,213.04 533.864,213.168 L533.864,205.232 C530.728,204.912 528.808,204.72 527.912,204.72 C521.32,204.72 516.136,205.424 516.136,216.048 L516.136,219.952 L511.144,219.952 L511.144,227.76 L516.136,227.76 L516.136,254 Z M572.456,239.216 L548.84,239.216 C548.84,244.08 552.232,247.088 556.776,247.088 C559.784,247.088 563.048,245.168 564.52,242.096 L572.456,245.68 C568.296,251.76 562.6,254.896 554.472,254.896 C543.784,254.896 536.296,248.304 536.296,236.976 C536.296,226.544 543.336,219.056 554.472,219.056 C564.584,219.056 572.456,224.944 572.456,238.256 L572.456,239.216 Z M549.288,232.688 L559.912,232.688 C560.04,229.104 558.376,226.096 554.92,226.096 C550.824,226.096 549.352,228.976 549.288,232.688 Z M611.496,239.216 L587.88,239.216 C587.88,244.08 591.272,247.088 595.816,247.088 C598.824,247.088 602.088,245.168 603.56,242.096 L611.496,245.68 C607.336,251.76 601.64,254.896 593.512,254.896 C582.824,254.896 575.336,248.304 575.336,236.976 C575.336,226.544 582.376,219.056 593.512,219.056 C603.624,219.056 611.496,224.944 611.496,238.256 L611.496,239.216 Z M588.328,232.688 L598.952,232.688 C599.08,229.104 597.416,226.096 593.96,226.096 C589.864,226.096 588.392,228.976 588.328,232.688 Z M613.992,247.728 C617.768,253.168 623.272,254.896 629.672,254.896 C642.344,254.896 647.144,250.032 647.144,242.928 C647.144,236.272 641.832,232.88 631.016,231.472 C626.856,230.96 625.64,230.512 625.64,229.104 C625.64,227.056 627.688,226.48 630.248,226.48 C632.808,226.48 636.648,227.76 637.544,229.936 L644.648,225.776 C641.704,220.4 635.24,219.056 629.608,219.056 C620.456,219.056 615.016,224.496 615.016,231.024 C615.016,233.136 615.784,235.76 617.704,237.808 C619.816,240.112 623.016,241.072 629.224,242.032 C635.752,243.056 636.136,244.016 636.136,245.168 C636.136,246.64 634.088,247.856 630.824,247.856 C626.536,247.856 623.592,246.704 621.096,243.184 L613.992,247.728 Z M653.928,254 L666.472,254 L666.472,241.456 L653.928,241.456 L653.928,254 Z" id="Outpreforms-other-co" fill="#000000"></path>
                <path d="M1093.5,92.5 L1093.5,1058.5" id="Line" stroke="#D12229" stroke-width="7" stroke-linecap="square"></path>
            </g>
        </g>
    </g>
</svg>